<?xml version="1.0" standalone="no"?>
<!DOCTYPE svg PUBLIC "-//W3C//DTD SVG 20010904//EN"
 "http://www.w3.org/TR/2001/REC-SVG-20010904/DTD/svg10.dtd">
<svg version="1.0" xmlns="http://www.w3.org/2000/svg"
 width="512.000000pt" height="512.000000pt" viewBox="0 0 512.000000 512.000000"
 preserveAspectRatio="xMidYMid meet">
<metadata>
Created by potrace 1.11, written by Peter Selinger 2001-2013
</metadata>
<g transform="translate(0.000000,512.000000) scale(0.100000,-0.100000)"
fill="#000000" stroke="none">
<path d="M2429 4996 c-2 -2 -42 -6 -89 -10 -458 -33 -937 -227 -1315 -533
-102 -82 -279 -258 -350 -348 -22 -27 -43 -52 -47 -55 -4 -3 -46 -64 -93 -135
-330 -493 -468 -1088 -390 -1683 145 -1119 1077 -2005 2209 -2101 98 -9 405
-7 452 3 16 3 52 8 79 11 403 47 865 244 1195 510 816 656 1123 1740 774 2730
-52 146 -171 382 -262 520 -385 579 -988 962 -1677 1066 -111 17 -474 36 -486
25z m361 -537 c333 -38 667 -175 945 -388 147 -112 372 -355 360 -388 -3 -10
-27 -35 -53 -56 -26 -20 -78 -66 -117 -102 -38 -35 -74 -64 -80 -64 -5 0 -30
27 -55 60 -55 74 -185 206 -260 264 -196 151 -396 245 -636 301 -161 37 -430
43 -599 13 -488 -85 -905 -393 -1129 -834 -25 -50 -52 -109 -60 -131 l-14 -42
999 -998 c681 -681 1004 -998 1016 -996 28 4 232 105 294 145 141 90 321 258
413 386 96 134 206 344 230 441 3 14 12 45 20 70 l14 45 -414 0 -414 0 0 187
0 188 610 0 c481 0 610 -3 611 -12 2 -24 -2 -153 -6 -178 -2 -14 -6 -50 -10
-80 -36 -298 -182 -641 -384 -905 -65 -86 -213 -237 -300 -307 -207 -166 -450
-293 -693 -361 l-87 -24 -1148 1148 c-946 946 -1147 1152 -1145 1171 9 59 89
275 141 383 103 210 227 381 392 540 259 250 538 401 904 492 60 15 244 40
307 42 40 1 74 4 75 5 6 5 183 -4 273 -15z m-309 -3807 c-125 -10 -435 53
-614 124 -454 179 -815 513 -1027 949 -86 177 -139 347 -175 559 -10 59 -19
192 -16 234 1 7 423 -410 939 -925 l939 -938 -46 -3z"/>
</g>
</svg>
